# xmcd
#
# Track frame offsets:
#	150
#	13357
#	32202
#	46618
#	64190
#	79504
#	95024
#	109901
#	126159
#	138999
#	157059
#	168274
#	184137
#	196847
#	210486
#	221037
#	234774
#	247872
#	259912
#	277845
#	287842
#	307192
#	317054
#	329382
#	342582
#
# Disc length: 4744 seconds
#
# Revision: 1
# Processed by: cddbd v1.5.2PL0 Copyright (c) Steve Scherf et al.
# Submitted via: audiograbber 1.82.02
#
DISCID=71128619
DTITLE=Hayseed Dixie - A Hillbilly Tribute To Kiiss, AC/DC and Mountain Love
DYEAR=2002
DGENRE=Country
TTITLE0=Calling Dr. Love
TTITLE1=Detroit Rock City
TTITLE2=Christine Sixteen
TTITLE3=Cold Gin
TTITLE4=Let's Put The X In Sex
TTITLE5=Love Gun
TTITLE6=Lick It Up
TTITLE7=I Love It Round
TTITLE8=Rock and Roll All Nite
TTITLE9=Heaven's On Fire
TTITLE10=Highway To Hell
TTITLE11=You Shook Me All Nioght Long
TTITLE12=Dirty Deeds Done Dirt Cheap
TTITLE13=Hells Bells
TTITLE14=Money Talks
TTITLE15=Let's Get It Up
TTITLE16=Have A Drink On Me
TTITLE17=T.N.T.
TTITLE18=Back In Black
TTITLE19=Big Balls
TTITLE20=Walk This Way
TTITLE21=I Love Rock and Roll
TTITLE22=Cat Scratch Fever
TTITLE23=My Best Friend's Girl
TTITLE24=Centerfold
EXTD=
EXTT0=
EXTT1=
EXTT2=
EXTT3=
EXTT4=
EXTT5=
EXTT6=
EXTT7=
EXTT8=
EXTT9=
EXTT10=
EXTT11=
EXTT12=
EXTT13=
EXTT14=
EXTT15=
EXTT16=
EXTT17=
EXTT18=
EXTT19=
EXTT20=
EXTT21=
EXTT22=
EXTT23=
EXTT24=
PLAYORDER=
